<?xml version="1.0" encoding="UTF-8" standalone="no"?>
<!DOCTYPE svg PUBLIC "-//W3C//DTD SVG 1.1//EN"
 "http://www.w3.org/Graphics/SVG/1.1/DTD/svg11.dtd">
<!-- Generated by graphviz version 2.40.1 (20161225.0304)
 -->
<!-- Title: G Pages: 1 -->
<svg width="284pt" height="130pt"
 viewBox="0.00 0.00 283.81 130.00" xmlns="http://www.w3.org/2000/svg" xmlns:xlink="http://www.w3.org/1999/xlink">
<g id="graph0" class="graph" transform="scale(1 1) rotate(0) translate(4 126)">
<title>G</title>
<polygon fill="#ffffff" stroke="transparent" points="-4,4 -4,-126 279.814,-126 279.814,4 -4,4"/>
<g id="clust1" class="cluster">
<title>cluster_Global</title>
<path fill="none" stroke="#c0c0c0" d="M20,-8C20,-8 255.814,-8 255.814,-8 261.814,-8 267.814,-14 267.814,-20 267.814,-20 267.814,-102 267.814,-102 267.814,-108 261.814,-114 255.814,-114 255.814,-114 20,-114 20,-114 14,-114 8,-108 8,-102 8,-102 8,-20 8,-20 8,-14 14,-8 20,-8"/>
<text text-anchor="middle" x="137.907" y="-101.2" font-family="Times,serif" font-size="11.00" fill="#c0c0c0">Global</text>
</g>
<g id="clust2" class="cluster">
<title>cluster_\Api</title>
<path fill="none" stroke="#c0c0c0" d="M28,-16C28,-16 247.814,-16 247.814,-16 253.814,-16 259.814,-22 259.814,-28 259.814,-28 259.814,-75 259.814,-75 259.814,-81 253.814,-87 247.814,-87 247.814,-87 28,-87 28,-87 22,-87 16,-81 16,-75 16,-75 16,-28 16,-28 16,-22 22,-16 28,-16"/>
<text text-anchor="middle" x="137.907" y="-74.2" font-family="Times,serif" font-size="11.00" fill="#c0c0c0">Api</text>
</g>
<!-- \\Api\\Move -->
<g id="node1" class="node">
<title>\\Api\\Move</title>
<polygon fill="none" stroke="#000000" points="251.814,-60 197.814,-60 197.814,-24 251.814,-24 251.814,-60"/>
<text text-anchor="middle" x="224.814" y="-38.7" font-family="Courier,monospace" font-size="11.00" fill="#000000">Move</text>
</g>
<!-- \\Api\\MoveInterface -->
<g id="node2" class="node">
<title>\\Api\\MoveInterface</title>
<polygon fill="none" stroke="#000000" points="125.7211,-60 24.0928,-60 24.0928,-24 125.7211,-24 125.7211,-60"/>
<text text-anchor="middle" x="74.907" y="-38.7" font-family="Courier,monospace" font-size="11.00" fill="#000000">MoveInterface</text>
</g>
<!-- \\Api\\Move&#45;&gt;\\Api\\MoveInterface -->
<g id="edge1" class="edge">
<title>\\Api\\Move&#45;&gt;\\Api\\MoveInterface</title>
<path fill="none" stroke="#000000" stroke-dasharray="1,5" d="M197.6669,-42C180.4044,-42 157.3354,-42 135.8572,-42"/>
<polygon fill="none" stroke="#000000" points="135.8017,-38.5001 125.8016,-42 135.8016,-45.5001 135.8017,-38.5001"/>
</g>
</g>
</svg>
